<svg width="24" height="24" viewBox="0 0 24 24" fill="none" xmlns="http://www.w3.org/2000/svg">
<path d="M15.2002 13.25C18.2652 13.2501 20.7499 15.7348 20.75 18.7998C20.75 20.9813 18.9813 22.75 16.7998 22.75H7.2002C5.01867 22.75 3.25 20.9813 3.25 18.7998C3.25011 15.7348 5.73478 13.2501 8.7998 13.25H15.2002ZM8.7998 14.75C6.56321 14.7501 4.75011 16.5632 4.75 18.7998C4.75 20.1529 5.8471 21.25 7.2002 21.25H16.7998C18.1529 21.25 19.25 20.1529 19.25 18.7998C19.2499 16.5632 17.4368 14.7501 15.2002 14.75H8.7998ZM12 1.25C14.6234 1.25 16.75 3.37665 16.75 6C16.75 8.62335 14.6234 10.75 12 10.75C9.37665 10.75 7.25 8.62335 7.25 6C7.25 3.37665 9.37665 1.25 12 1.25ZM12 2.75C10.2051 2.75 8.75 4.20507 8.75 6C8.75 7.79493 10.2051 9.25 12 9.25C13.7949 9.25 15.25 7.79493 15.25 6C15.25 4.20507 13.7949 2.75 12 2.75Z" fill="#22272F"/>
</svg>
