<svg width="24" height="24" viewBox="0 0 24 24" fill="none" xmlns="http://www.w3.org/2000/svg">
<path d="M16 0.25C16.4142 0.25 16.75 0.585786 16.75 1V1.36621C17.6402 1.46164 18.386 1.63968 19.0645 1.98535C20.3345 2.6325 21.3675 3.66545 22.0146 4.93555C22.4044 5.70049 22.5805 6.55103 22.666 7.59766C22.7508 8.63571 22.75 9.93202 22.75 11.5996V12.4004C22.75 14.068 22.7508 15.3643 22.666 16.4023C22.5805 17.449 22.4044 18.2995 22.0146 19.0645C21.3675 20.3345 20.3345 21.3675 19.0645 22.0146C18.2995 22.4044 17.449 22.5805 16.4023 22.666C15.3643 22.7508 14.068 22.75 12.4004 22.75H11.5996C9.93202 22.75 8.63571 22.7508 7.59766 22.666C6.55103 22.5805 5.70049 22.4044 4.93555 22.0146C3.66545 21.3675 2.6325 20.3345 1.98535 19.0645C1.59562 18.2995 1.41953 17.449 1.33398 16.4023C1.24917 15.3643 1.25 14.068 1.25 12.4004V11.5996C1.25 9.93202 1.24917 8.63571 1.33398 7.59766C1.41953 6.55103 1.59562 5.70049 1.98535 4.93555C2.6325 3.66545 3.66545 2.6325 4.93555 1.98535C5.61401 1.63968 6.35977 1.46164 7.25 1.36621V1C7.25 0.585786 7.58579 0.25 8 0.25C8.41421 0.25 8.75 0.585786 8.75 1V1.27637C9.55977 1.25221 10.4987 1.25 11.5996 1.25H12.4004C13.5013 1.25 14.4402 1.25221 15.25 1.27637V1C15.25 0.585786 15.5858 0.25 16 0.25ZM11.5996 2.75C10.4578 2.75 9.52911 2.75207 8.75 2.77637V4C8.75 4.41421 8.41421 4.75 8 4.75C7.58579 4.75 7.25 4.41421 7.25 4V2.87793C6.54977 2.96435 6.0442 3.10419 5.61621 3.32227C4.62859 3.82556 3.82556 4.62859 3.32227 5.61621C3.05814 6.1346 2.90706 6.76657 2.8291 7.7207C2.75047 8.68345 2.75 9.90753 2.75 11.5996V12.4004C2.75 14.0925 2.75047 15.3165 2.8291 16.2793C2.90706 17.2334 3.05814 17.8654 3.32227 18.3838C3.82556 19.3714 4.62859 20.1744 5.61621 20.6777C6.1346 20.9419 6.76657 21.0929 7.7207 21.1709C8.68345 21.2495 9.90753 21.25 11.5996 21.25H12.4004C14.0925 21.25 15.3165 21.2495 16.2793 21.1709C17.2334 21.0929 17.8654 20.9419 18.3838 20.6777C19.3714 20.1744 20.1744 19.3714 20.6777 18.3838C20.9419 17.8654 21.0929 17.2334 21.1709 16.2793C21.2495 15.3165 21.25 14.0925 21.25 12.4004V11.5996C21.25 9.90753 21.2495 8.68345 21.1709 7.7207C21.0929 6.76657 20.9419 6.1346 20.6777 5.61621C20.1744 4.62859 19.3714 3.82556 18.3838 3.32227C17.9558 3.10419 17.4502 2.96435 16.75 2.87793V4C16.75 4.41421 16.4142 4.75 16 4.75C15.5858 4.75 15.25 4.41421 15.25 4V2.77637C14.4709 2.75207 13.5422 2.75 12.4004 2.75H11.5996ZM8 16C8.55229 16 9 16.4477 9 17C9 17.5523 8.55229 18 8 18C7.44772 18 7 17.5523 7 17C7 16.4477 7.44772 16 8 16ZM12 16C12.5523 16 13 16.4477 13 17C13 17.5523 12.5523 18 12 18C11.4477 18 11 17.5523 11 17C11 16.4477 11.4477 16 12 16ZM16 16C16.5523 16 17 16.4477 17 17C17 17.5523 16.5523 18 16 18C15.4477 18 15 17.5523 15 17C15 16.4477 15.4477 16 16 16ZM8 12C8.55229 12 9 12.4477 9 13C9 13.5523 8.55229 14 8 14C7.44772 14 7 13.5523 7 13C7 12.4477 7.44772 12 8 12ZM12 12C12.5523 12 13 12.4477 13 13C13 13.5523 12.5523 14 12 14C11.4477 14 11 13.5523 11 13C11 12.4477 11.4477 12 12 12ZM16 12C16.5523 12 17 12.4477 17 13C17 13.5523 16.5523 14 16 14C15.4477 14 15 13.5523 15 13C15 12.4477 15.4477 12 16 12ZM17 7.25C17.4142 7.25 17.75 7.58579 17.75 8C17.75 8.41421 17.4142 8.75 17 8.75H7C6.58579 8.75 6.25 8.41421 6.25 8C6.25 7.58579 6.58579 7.25 7 7.25H17Z" fill="#22272F"/>
</svg>
