<svg width="9" height="8" viewBox="0 0 9 8" fill="none" xmlns="http://www.w3.org/2000/svg">
<path fill-rule="evenodd" clip-rule="evenodd" d="M4.17469 0.353483C6.2853 0.353764 7.99674 2.06512 7.99695 4.17575C7.99685 6.28647 6.28537 7.99773 4.17469 7.99801C2.06377 7.99801 0.352527 6.28664 0.352423 4.17575C0.352639 2.06495 2.06384 0.353483 4.17469 0.353483ZM4.17469 0.953092C2.39521 0.953092 0.952248 2.39632 0.952033 4.17575C0.952137 5.95527 2.39514 7.39743 4.17469 7.39743C5.954 7.39715 7.39626 5.9551 7.39637 4.17575C7.39615 2.3965 5.95393 0.953373 4.17469 0.953092ZM4.17371 2.46676C4.33926 2.46676 4.4733 2.60107 4.47352 2.76657V4.01462L5.39637 4.62985C5.53404 4.72163 5.57179 4.90806 5.48035 5.04587C5.38853 5.1836 5.20216 5.22143 5.06434 5.12985L4.0077 4.42477C3.92462 4.36914 3.874 4.27575 3.87391 4.17575V2.76657C3.87412 2.60122 4.00838 2.46702 4.17371 2.46676ZM1.14442 0.0898111C1.26157 -0.0273395 1.45108 -0.0273262 1.56824 0.0898111C1.68522 0.206982 1.68534 0.396541 1.56824 0.513639L0.511603 1.57028C0.394492 1.68721 0.204891 1.68721 0.0877749 1.57028C-0.0293071 1.45318 -0.0292095 1.26362 0.0877749 1.14645L1.14442 0.0898111ZM6.78016 0.0898111C6.89732 -0.0273262 7.08683 -0.0273395 7.20399 0.0898111L8.26063 1.14645C8.37758 1.26362 8.3777 1.45319 8.26063 1.57028C8.14352 1.68723 7.95392 1.68719 7.8368 1.57028L6.78016 0.513639C6.66305 0.39653 6.66314 0.20698 6.78016 0.0898111Z" fill="#8A38F5"/>
</svg>
