<svg width="20" height="21" viewBox="0 0 20 21" fill="none" xmlns="http://www.w3.org/2000/svg">
<path d="M13.4473 0C13.8614 1.23643e-05 14.1972 0.335878 14.1973 0.75V1.0752C14.6801 1.15328 15.1164 1.26986 15.5293 1.44531C17.1374 2.12882 18.4182 3.40938 19.1016 5.01758C19.3866 5.68848 19.5157 6.42059 19.5781 7.31543C19.6401 8.20336 19.6396 9.30678 19.6396 10.7266C19.6396 12.1466 19.6401 13.2506 19.5781 14.1387C19.5157 15.0336 19.3867 15.7656 19.1016 16.4365C18.4181 18.0447 17.1375 19.3253 15.5293 20.0088C14.8584 20.2939 14.1262 20.4229 13.2314 20.4854C12.3435 20.5473 11.2392 20.5469 9.81934 20.5469C8.39973 20.5469 7.29607 20.5473 6.4082 20.4854C5.51345 20.4229 4.7812 20.2938 4.11035 20.0088C2.50209 19.3254 1.22157 18.0448 0.538086 16.4365C0.252962 15.7656 0.123998 15.0336 0.0615234 14.1387C-0.000461341 13.2506 -1.47837e-08 12.1466 0 10.7266C-8.5384e-08 9.30674 -0.000449689 8.20337 0.0615234 7.31543C0.123991 6.42048 0.252974 5.68855 0.538086 5.01758C1.22156 3.40929 2.50205 2.12876 4.11035 1.44531C4.52309 1.26997 4.95877 1.15326 5.44141 1.0752V0.75C5.4415 0.335878 5.77726 1.23651e-05 6.19141 0C6.60556 -1.81032e-08 6.94131 0.33587 6.94141 0.75V0.941406C7.72921 0.908725 8.67092 0.907227 9.81934 0.907227C10.9677 0.907227 11.9093 0.908727 12.6973 0.941406V0.75C12.6974 0.33587 13.0331 1.81032e-08 13.4473 0ZM9.81934 2.40723C8.61772 2.40723 7.69296 2.40901 6.94141 2.44238V3.4707C6.94141 3.88492 6.60562 4.2207 6.19141 4.2207C5.7772 4.22069 5.44141 3.88491 5.44141 3.4707V2.59961C5.15777 2.65767 4.9162 2.73177 4.69629 2.8252C3.44562 3.35676 2.44955 4.35286 1.91797 5.60352C1.72519 6.05716 1.61463 6.60317 1.55762 7.41992C1.50014 8.24352 1.5 9.28579 1.5 10.7266C1.5 12.1676 1.50012 13.2105 1.55762 14.0342C1.61461 14.8506 1.72532 15.3961 1.91797 15.8496C2.44954 17.1004 3.44554 18.0973 4.69629 18.6289C5.14986 18.8216 5.69618 18.9323 6.5127 18.9893C7.33623 19.0467 8.3788 19.0469 9.81934 19.0469C11.2602 19.0469 12.3033 19.0467 13.127 18.9893C13.9432 18.9323 14.4889 18.8215 14.9424 18.6289C16.1931 18.0973 17.1901 17.1004 17.7217 15.8496C17.9143 15.3961 18.025 14.8505 18.082 14.0342C18.1395 13.2105 18.1396 12.1676 18.1396 10.7266C18.1396 9.28583 18.1395 8.24351 18.082 7.41992C18.025 6.6033 17.9144 6.05712 17.7217 5.60352C17.1901 4.35283 16.193 3.35679 14.9424 2.8252C14.7225 2.73181 14.4807 2.6577 14.1973 2.59961V3.4707C14.1973 3.88491 13.8615 4.22069 13.4473 4.2207C13.0331 4.2207 12.6973 3.88492 12.6973 3.4707V2.44238C11.9456 2.40901 11.021 2.40723 9.81934 2.40723ZM6.19141 14.3545C6.69229 14.3545 7.09858 14.7609 7.09863 15.2617C7.09863 15.7626 6.69232 16.1689 6.19141 16.1689C5.69051 16.1689 5.28418 15.7626 5.28418 15.2617C5.28423 14.7609 5.69054 14.3545 6.19141 14.3545ZM9.81934 14.3545C10.3202 14.3545 10.7265 14.7609 10.7266 15.2617C10.7266 15.7626 10.3202 16.1689 9.81934 16.1689C9.31843 16.1689 8.91211 15.7626 8.91211 15.2617C8.91216 14.7609 9.31846 14.3545 9.81934 14.3545ZM13.4473 14.3545C13.9481 14.3545 14.3544 14.7609 14.3545 15.2617C14.3545 15.7626 13.9482 16.1689 13.4473 16.1689C12.9464 16.1689 12.54 15.7626 12.54 15.2617C12.5401 14.7609 12.9464 14.3545 13.4473 14.3545ZM6.19141 10.7266C6.69228 10.7266 7.09857 11.1329 7.09863 11.6338C7.09863 12.1347 6.69232 12.541 6.19141 12.541C5.69051 12.541 5.28418 12.1347 5.28418 11.6338C5.28424 11.1329 5.69055 10.7266 6.19141 10.7266ZM9.81934 10.7266C10.3202 10.7266 10.7265 11.1329 10.7266 11.6338C10.7266 12.1347 10.3202 12.541 9.81934 12.541C9.31843 12.541 8.91211 12.1347 8.91211 11.6338C8.91217 11.1329 9.31846 10.7266 9.81934 10.7266ZM13.4473 10.7266C13.9481 10.7266 14.3544 11.1329 14.3545 11.6338C14.3545 12.1347 13.9482 12.541 13.4473 12.541C12.9464 12.541 12.54 12.1347 12.54 11.6338C12.5401 11.1329 12.9464 10.7266 13.4473 10.7266ZM14.3535 6.34863C14.7676 6.34863 15.1033 6.6846 15.1035 7.09863C15.1035 7.51285 14.7677 7.84863 14.3535 7.84863H5.28418C4.87009 7.84849 4.53418 7.51276 4.53418 7.09863C4.53439 6.68469 4.87022 6.34878 5.28418 6.34863H14.3535Z" fill="white"/>
</svg>
