<svg width="19" height="17" viewBox="0 0 19 17" fill="none" xmlns="http://www.w3.org/2000/svg">
<path d="M14.8594 0.000976562C16.8784 0.0368027 18.5062 1.66461 18.542 3.68359C18.5426 3.71833 18.543 3.75818 18.543 3.81738V5.71289C18.5426 6.2098 18.1396 6.61327 17.6426 6.61328C16.7281 6.61332 15.9866 7.35415 15.9863 8.26855V8.56934C15.9865 9.48375 16.7281 10.2255 17.6426 10.2256C18.1398 10.2256 18.5428 10.6288 18.543 11.126V13.0205C18.543 13.08 18.5426 13.1204 18.542 13.1553C18.5059 15.1741 16.8782 16.8021 14.8594 16.8379C14.8245 16.8385 14.785 16.8389 14.7256 16.8389H3.81738C3.75797 16.8389 3.71842 16.8385 3.68359 16.8379C1.66475 16.8021 0.0370206 15.1741 0.000976562 13.1553C0.000358409 13.1204 1.61636e-06 13.08 0 13.0205V11.126C0.000122222 10.6288 0.403202 10.2256 0.900391 10.2256L1.06934 10.2168C1.90444 10.1321 2.55643 9.42672 2.55664 8.56934V8.26855C2.55641 7.35414 1.81486 6.6133 0.900391 6.61328C0.40338 6.61328 0.000413159 6.20981 0 5.71289V3.81738C-1.1721e-07 3.75819 0.000364372 3.71833 0.000976562 3.68359C0.03679 1.6646 1.6646 0.03679 3.68359 0.000976562C3.71842 0.000360111 3.75796 -1.18307e-07 3.81738 0H14.7256C14.785 -2.74084e-08 14.8245 0.000361082 14.8594 0.000976562ZM3.70996 1.5C2.49867 1.52155 1.52155 2.49867 1.5 3.70996V5.16992C2.9561 5.45003 4.05643 6.73076 4.05664 8.26855V8.56934C4.05645 10.1071 2.95608 11.3878 1.5 11.668V13.1289C1.52183 14.34 2.49885 15.3173 3.70996 15.3389H14.833C16.0441 15.3173 17.0211 14.34 17.043 13.1289V11.668C15.5869 11.3878 14.4865 10.1071 14.4863 8.56934V8.26855C14.4865 6.73077 15.5869 5.45005 17.043 5.16992V3.70996C17.0214 2.49865 16.0443 1.52153 14.833 1.5H3.70996ZM6.71484 11.0771C7.12892 11.0771 7.46463 11.4131 7.46484 11.8271V13.5312C7.46484 13.9455 7.12906 14.2812 6.71484 14.2812C6.30072 14.2811 5.96484 13.9454 5.96484 13.5312V11.8271C5.96506 11.4132 6.30085 11.0773 6.71484 11.0771ZM6.71484 6.81641C7.12893 6.81641 7.46463 7.15237 7.46484 7.56641V9.27051C7.46484 9.68472 7.12906 10.0205 6.71484 10.0205C6.30072 10.0204 5.96484 9.68466 5.96484 9.27051V7.56641C5.96505 7.15243 6.30085 6.81651 6.71484 6.81641ZM6.71484 2.55566C7.12893 2.55566 7.46464 2.89163 7.46484 3.30566V5.00977C7.46484 5.42398 7.12906 5.75977 6.71484 5.75977C6.30072 5.75966 5.96484 5.42392 5.96484 5.00977V3.30566C5.96505 2.89169 6.30084 2.55577 6.71484 2.55566Z" fill="white"/>
</svg>
