<svg width="22" height="23" viewBox="0 0 22 23" fill="none" xmlns="http://www.w3.org/2000/svg">
<path d="M19.75 18.3467C20.1642 18.3467 20.5 18.6825 20.5 19.0967C20.5 19.5109 20.1642 19.8467 19.75 19.8467C17.7762 19.8467 16.3531 19.971 15.0723 20.3203C13.7994 20.6675 12.6237 21.2489 11.166 22.2207C10.9141 22.3887 10.5859 22.3887 10.334 22.2207C8.87627 21.2489 7.7006 20.6675 6.42773 20.3203C5.14694 19.971 3.72377 19.8467 1.75 19.8467C1.33579 19.8467 1 19.5109 1 19.0967C1 18.6825 1.33579 18.3467 1.75 18.3467C3.7762 18.3467 5.35308 18.4724 6.82227 18.873C8.16512 19.2393 9.38115 19.8262 10.75 20.7021C12.1189 19.8262 13.3349 19.2393 14.6777 18.873C16.1469 18.4724 17.7238 18.3467 19.75 18.3467ZM20.75 0.84668C21.1642 0.84668 21.5 1.18247 21.5 1.59668V12.2539C21.5 12.7925 21.5002 13.2398 21.4717 13.6035C21.4425 13.9749 21.3795 14.3248 21.2168 14.6553C20.9623 15.1719 20.5807 15.5719 20.0762 15.8496C19.749 16.0297 19.3896 16.1073 19.0078 16.1533C18.6299 16.1988 18.1579 16.22 17.584 16.2461C15.1548 16.3567 13.4507 16.7519 11.1553 18.2275C10.9083 18.3862 10.5917 18.3862 10.3447 18.2275C8.04926 16.7519 6.34515 16.3567 3.91602 16.2461C3.34207 16.22 2.87014 16.1988 2.49219 16.1533C2.11038 16.1073 1.75102 16.0297 1.42383 15.8496C0.919293 15.5719 0.537676 15.1719 0.283203 14.6553C0.120456 14.3248 0.0574808 13.9749 0.0283203 13.6035C-0.000212745 13.2398 -5.8026e-08 12.7925 0 12.2539V1.59668C2.45494e-07 1.39777 0.0790752 1.20706 0.219727 1.06641C0.360378 0.925755 0.551089 0.84668 0.75 0.84668C2.95254 0.846681 4.69065 0.844569 6.2959 1.12598C6.41449 1.14677 6.53231 1.16939 6.64941 1.19336C7.98213 1.4661 8.64851 1.60266 9.32422 2.43066C9.99974 3.25861 10 4.17625 10 6.01172V9.59668C10 10.0109 10.3358 10.3467 10.75 10.3467C11.1642 10.3467 11.5 10.0109 11.5 9.59668V6.01172C11.5 4.17625 11.5003 3.25861 12.1758 2.43066C12.8515 1.60266 13.5179 1.4661 14.8506 1.19336C14.9677 1.16939 15.0855 1.14677 15.2041 1.12598C16.8094 0.844568 18.5475 0.84668 20.75 0.84668Z" fill="#22272F"/>
</svg>
