<svg width="22" height="22" viewBox="0 0 22 22" fill="none" xmlns="http://www.w3.org/2000/svg">
<path d="M13.2324 0.443848C14.6201 0.443848 15.7068 0.442967 16.5781 0.51416C17.458 0.586079 18.1848 0.7356 18.8428 1.0708C19.9246 1.62208 20.8052 2.50165 21.3564 3.5835C21.6916 4.24146 21.8402 4.96926 21.9121 5.84912C21.9832 6.72038 21.9824 7.80648 21.9824 9.19385V12.8062C21.9824 14.1935 21.9833 15.2796 21.9121 16.1509C21.8402 17.0307 21.6916 17.7586 21.3564 18.4165C20.8052 19.4983 19.9246 20.378 18.8428 20.9292C18.1848 21.2644 17.458 21.4139 16.5781 21.4858C15.7068 21.557 14.6201 21.5562 13.2324 21.5562H8.76758C7.3801 21.5562 6.29415 21.557 5.42285 21.4858C4.54283 21.4139 3.81529 21.2644 3.15723 20.9292C2.07544 20.378 1.1958 19.4982 0.644531 18.4165C0.309267 17.7585 0.159811 17.0308 0.0878906 16.1509C0.0167396 15.2797 0.017578 14.1935 0.0175781 12.8062V9.19385C0.0175781 7.80648 0.0167558 6.72038 0.0878906 5.84912C0.159792 4.96909 0.309287 4.24156 0.644531 3.5835C1.19579 2.5016 2.07533 1.62207 3.15723 1.0708C3.81536 0.735467 4.54271 0.586071 5.42285 0.51416C6.29416 0.443003 7.38007 0.443848 8.76758 0.443848H13.2324ZM5.88379 8.28857C5.46958 8.28857 5.13379 8.62436 5.13379 9.03857V14.9224C5.134 15.3364 5.4697 15.6724 5.88379 15.6724C6.29779 15.6723 6.63358 15.3363 6.63379 14.9224V9.03857C6.63379 8.62442 6.29791 8.28868 5.88379 8.28857ZM11 6.32764C10.5858 6.32764 10.25 6.66342 10.25 7.07764V14.9224C10.2502 15.3364 10.5859 15.6724 11 15.6724C11.414 15.6723 11.7498 15.3363 11.75 14.9224V7.07764C11.75 6.66347 11.4142 6.3277 11 6.32764ZM16.1162 10.2495C15.702 10.2495 15.3662 10.5853 15.3662 10.9995V14.9224C15.3664 15.3364 15.7021 15.6724 16.1162 15.6724C16.5303 15.6723 16.866 15.3364 16.8662 14.9224V10.9995C16.8662 10.5853 16.5304 10.2495 16.1162 10.2495Z" fill="#22272F"/>
</svg>
