<svg width="24" height="24" viewBox="0 0 24 24" fill="none" xmlns="http://www.w3.org/2000/svg">
<path d="M14 2.25C15.3876 2.25 16.4734 2.24915 17.3447 2.32031C18.2249 2.39222 18.9522 2.54162 19.6104 2.87695C20.6923 3.42822 21.5718 4.30774 22.123 5.38965C22.4584 6.04778 22.6078 6.77513 22.6797 7.65527C22.7509 8.5266 22.75 9.61244 22.75 11V13C22.75 14.3876 22.7509 15.4734 22.6797 16.3447C22.6078 17.2249 22.4584 17.9522 22.123 18.6104C21.5718 19.6923 20.6923 20.5718 19.6104 21.123C18.9522 21.4584 18.2249 21.6078 17.3447 21.6797C16.4734 21.7509 15.3876 21.75 14 21.75H10C8.61244 21.75 7.5266 21.7509 6.65527 21.6797C5.77513 21.6078 5.04778 21.4584 4.38965 21.123C3.30774 20.5718 2.42822 19.6923 1.87695 18.6104C1.54162 17.9522 1.39222 17.2249 1.32031 16.3447C1.24915 15.4734 1.25 14.3876 1.25 13V11C1.25 9.61244 1.24915 8.5266 1.32031 7.65527C1.39222 6.77513 1.54162 6.04778 1.87695 5.38965C2.42822 4.30774 3.30774 3.42822 4.38965 2.87695C5.04778 2.54162 5.77513 2.39222 6.65527 2.32031C7.5266 2.24915 8.61244 2.25 10 2.25H14ZM10 3.75C8.58766 3.75 7.57344 3.75041 6.77734 3.81543C5.98996 3.87976 5.48174 4.00326 5.07031 4.21289C4.27066 4.62035 3.62035 5.27066 3.21289 6.07031C3.00326 6.48174 2.87976 6.98996 2.81543 7.77734C2.75041 8.57344 2.75 9.58766 2.75 11V13C2.75 14.4123 2.75041 15.4266 2.81543 16.2227C2.87976 17.01 3.00326 17.5183 3.21289 17.9297C3.62035 18.7293 4.27066 19.3797 5.07031 19.7871C5.48174 19.9967 5.98996 20.1202 6.77734 20.1846C7.57344 20.2496 8.58766 20.25 10 20.25H14C15.4123 20.25 16.4266 20.2496 17.2227 20.1846C18.01 20.1202 18.5183 19.9967 18.9297 19.7871C19.7293 19.3797 20.3797 18.7293 20.7871 17.9297C20.9967 17.5183 21.1202 17.01 21.1846 16.2227C21.2496 15.4266 21.25 14.4123 21.25 13V11C21.25 9.58766 21.2496 8.57344 21.1846 7.77734C21.1202 6.98996 20.9967 6.48174 20.7871 6.07031C20.3797 5.27066 19.7293 4.62035 18.9297 4.21289C18.5183 4.00326 18.01 3.87976 17.2227 3.81543C16.4266 3.75041 15.4123 3.75 14 3.75H10ZM17.584 7.37598C17.9286 7.14621 18.3943 7.23934 18.624 7.58398C18.8538 7.92863 18.7607 8.39426 18.416 8.62402L17.416 9.29102C15.8471 10.337 14.9344 10.9545 13.9473 11.252C12.6773 11.6346 11.3227 11.6346 10.0527 11.252C9.06563 10.9545 8.15291 10.337 6.58398 9.29102L5.58398 8.62402C5.23934 8.39426 5.14621 7.92863 5.37598 7.58398C5.60574 7.23934 6.07137 7.14621 6.41602 7.37598L7.41602 8.04297C9.06605 9.14299 9.76331 9.59784 10.4854 9.81543C11.4731 10.113 12.5269 10.113 13.5146 9.81543C14.2367 9.59784 14.934 9.14299 16.584 8.04297L17.584 7.37598Z" fill="#22272F"/>
</svg>
