<svg width="26" height="26" viewBox="0 0 26 26" fill="none" xmlns="http://www.w3.org/2000/svg">
<path d="M13 22.0474C13.4139 22.0475 13.7496 22.3826 13.75 22.7964V25.2456C13.75 25.6597 13.4141 25.9964 13 25.9966C12.5859 25.9966 12.2503 25.6606 12.25 25.2466V22.7974C12.2501 22.3832 12.5859 22.0474 13 22.0474ZM5.19336 19.814C5.48492 19.5202 5.95767 19.5199 6.24902 19.814C6.54023 20.108 6.53991 20.5851 6.24902 20.8794L4.42871 22.7173C4.13726 23.0113 3.66453 23.0113 3.37305 22.7173C3.08153 22.423 3.08153 21.9451 3.37305 21.6509L5.19336 19.814ZM19.751 19.814C20.0425 19.5197 20.5151 19.5198 20.8066 19.814L22.627 21.6509C22.9181 21.945 22.918 22.4221 22.627 22.7163C22.3355 23.0105 21.8628 23.0104 21.5713 22.7163L19.751 20.8794C19.4596 20.5851 19.4595 20.1082 19.751 19.814ZM13 6.12646C16.7707 6.12672 19.8154 9.21043 19.8154 12.9995C19.8154 16.7886 16.7707 19.8723 13 19.8726C9.22921 19.8724 6.18359 16.7887 6.18359 12.9995C6.18362 9.2104 9.22923 6.12666 13 6.12646ZM3.29492 12.2505C3.70884 12.2508 4.04492 12.5865 4.04492 13.0005C4.04466 13.4143 3.70868 13.7501 3.29492 13.7505H0.868164C0.453951 13.7505 0.118164 13.4137 0.118164 12.9995C0.118428 12.5855 0.454113 12.2505 0.868164 12.2505H3.29492ZM25.1318 12.2505C25.5459 12.2506 25.8818 12.5864 25.8818 13.0005C25.8816 13.4144 25.5458 13.7504 25.1318 13.7505H22.7051C22.2912 13.7502 21.9553 13.4143 21.9551 13.0005C21.9551 12.5864 22.2911 12.2507 22.7051 12.2505H25.1318ZM3.37305 3.28174C3.66457 2.98748 4.1372 2.98747 4.42871 3.28174L6.24902 5.11865C6.54011 5.41282 6.54007 5.8899 6.24902 6.18408C5.95758 6.47827 5.48489 6.47812 5.19336 6.18408L3.37305 4.34717C3.08154 4.05291 3.08155 3.576 3.37305 3.28174ZM21.5713 3.28174C21.8628 2.98784 22.3356 2.9876 22.627 3.28174C22.9182 3.57586 22.918 4.05291 22.627 4.34717L20.8066 6.18408C20.5151 6.47835 20.0425 6.47835 19.751 6.18408C19.4597 5.8898 19.4595 5.41284 19.751 5.11865L21.5713 3.28174ZM13 0.00439453C13.4139 0.00454694 13.7497 0.339523 13.75 0.753418V3.20264C13.75 3.61676 13.4141 3.95346 13 3.95361C12.586 3.95361 12.2503 3.6176 12.25 3.20361V0.754395C12.25 0.340182 12.5858 0.00439591 13 0.00439453Z" fill="#22272F"/>
</svg>
