<svg width="21" height="22" viewBox="0 0 21 22" fill="none" xmlns="http://www.w3.org/2000/svg">
<path d="M11.1338 0.25C13.2974 0.25 14.6007 0.236087 15.7031 0.699219C16.6457 1.09525 17.4663 1.73531 18.0791 2.55371C18.7957 3.51083 19.0974 4.77912 19.6221 6.87793L20.2383 9.3418C20.3771 9.897 20.4524 10.1983 20.5127 10.5C20.8426 12.1501 20.8426 13.8499 20.5127 15.5C20.4524 15.8017 20.3771 16.103 20.2383 16.6582C20.0688 17.3363 19.9688 17.7433 19.8291 18.0996C19.0632 20.0518 17.2945 21.4326 15.2148 21.7021C14.8352 21.7513 14.416 21.75 13.7168 21.75H7.04297C6.34374 21.75 5.92457 21.7513 5.54492 21.7021C3.46513 21.4326 1.69658 20.0519 0.930664 18.0996C0.790954 17.7433 0.691007 17.3363 0.521484 16.6582C0.382668 16.1029 0.307407 15.8017 0.24707 15.5C-0.0828727 13.8497 -0.0829199 12.1502 0.24707 10.5C0.30741 10.1983 0.382664 9.89705 0.521484 9.3418L1.1377 6.87793C1.66245 4.779 1.96495 3.51083 2.68164 2.55371C3.29442 1.73545 4.11418 1.09521 5.05664 0.699219C6.15899 0.236128 7.4625 0.249999 9.62598 0.25H11.1338ZM1.52734 13.75C1.55994 14.238 1.62149 14.7245 1.71777 15.2061C1.7695 15.4647 1.83445 15.7265 1.97656 16.2949C2.15651 17.0147 2.23144 17.3076 2.32715 17.5518C2.89323 18.9947 4.20016 20.0156 5.7373 20.2148C5.99755 20.2486 6.30015 20.25 7.04297 20.25H13.7168C14.4597 20.25 14.7622 20.2486 15.0225 20.2148C16.5595 20.0155 17.8665 18.9946 18.4326 17.5518C18.5283 17.3076 18.6032 17.014 18.7832 16.2939C18.9252 15.7259 18.9903 15.4646 19.042 15.2061C19.1383 14.7245 19.1998 14.238 19.2324 13.75H17.0928C16.4201 13.75 16.2393 13.7574 16.0869 13.8037C15.9297 13.8515 15.7832 13.9299 15.6562 14.0342C15.5332 14.1353 15.4268 14.2812 15.0537 14.8408L14.9541 14.9912C14.6328 15.4731 14.3912 15.8481 14.0557 16.124C13.7764 16.3536 13.4543 16.5258 13.1084 16.6309C12.6925 16.7572 12.2464 16.75 11.667 16.75H9.09277C8.51346 16.75 8.06719 16.7571 7.65137 16.6309C7.30549 16.5258 6.98336 16.3535 6.7041 16.124C6.36848 15.8481 6.12696 15.4732 5.80566 14.9912L5.70605 14.8408C5.33314 14.2814 5.2265 14.1353 5.10352 14.0342C4.97665 13.9299 4.82996 13.8514 4.67285 13.8037C4.52042 13.7574 4.33965 13.75 3.66699 13.75H1.52734ZM9.62598 1.75C7.32329 1.75 6.39327 1.76463 5.6377 2.08203C4.94117 2.37468 4.33475 2.84745 3.88184 3.45215C3.39062 4.10815 3.15125 5.00743 2.59277 7.24121L1.97656 9.70508C1.83446 10.2735 1.7695 10.5353 1.71777 10.7939C1.62149 11.2754 1.55995 11.7621 1.52734 12.25H3.66699C4.24638 12.25 4.69253 12.2429 5.1084 12.3691C5.45423 12.4742 5.77642 12.6465 6.05566 12.876C6.39124 13.1519 6.63285 13.5269 6.9541 14.0088L7.05371 14.1592C7.42672 14.7187 7.53324 14.8647 7.65625 14.9658C7.78317 15.0701 7.92972 15.1485 8.08691 15.1963C8.23934 15.2426 8.42014 15.25 9.09277 15.25H11.667C12.3398 15.25 12.5204 15.2426 12.6729 15.1963C12.83 15.1485 12.9766 15.0701 13.1035 14.9658C13.2265 14.8647 13.3331 14.7186 13.7061 14.1592L13.8057 14.0088C14.127 13.5268 14.3684 13.1519 14.7041 12.876C14.9834 12.6465 15.3055 12.4742 15.6514 12.3691C16.0672 12.2429 16.5135 12.25 17.0928 12.25H19.2324C19.1998 11.7621 19.1383 11.2754 19.042 10.7939C18.9903 10.5354 18.9252 10.2741 18.7832 9.70605L18.167 7.24219C17.6086 5.00831 17.3691 4.10916 16.8779 3.45312C16.425 2.84824 15.8188 2.37474 15.1221 2.08203C14.3665 1.76463 13.4366 1.75 11.1338 1.75H9.62598ZM12.3799 9.25C12.794 9.25 13.1298 9.58589 13.1299 10C13.1299 10.4142 12.7941 10.75 12.3799 10.75H8.37988C7.9657 10.75 7.62988 10.4142 7.62988 10C7.63 9.58591 7.96577 9.25004 8.37988 9.25H12.3799ZM13.3799 5.25C13.794 5.25 14.1298 5.58589 14.1299 6C14.1299 6.41421 13.7941 6.75 13.3799 6.75H7.37988C6.9657 6.74996 6.62988 6.41419 6.62988 6C6.63 5.58591 6.96577 5.25004 7.37988 5.25H13.3799Z" fill="#22272F"/>
</svg>
