<svg width="21" height="22" viewBox="0 0 21 22" fill="none" xmlns="http://www.w3.org/2000/svg">
<path d="M11.1338 0.25C13.2972 0.25 14.6008 0.236237 15.7031 0.699219C16.6456 1.09521 17.4663 1.73542 18.0791 2.55371C18.7957 3.51081 19.0974 4.77921 19.6221 6.87793L20.2383 9.3418C20.3771 9.89692 20.4524 10.1984 20.5127 10.5C20.8426 12.1501 20.8426 13.8499 20.5127 15.5C20.4524 15.8017 20.3771 16.103 20.2383 16.6582C20.0688 17.3363 19.9688 17.7433 19.8291 18.0996C19.0632 20.0518 17.2946 21.4326 15.2148 21.7021C14.8352 21.7513 14.4159 21.75 13.7168 21.75H7.04297C6.34393 21.75 5.92452 21.7513 5.54492 21.7021C3.4653 21.4325 1.69653 20.0518 0.930664 18.0996C0.79099 17.7434 0.690979 17.3362 0.521484 16.6582C0.38269 16.103 0.307402 15.8017 0.24707 15.5C-0.0828486 13.8498 -0.0829118 12.1502 0.24707 10.5C0.307411 10.1983 0.382659 9.89707 0.521484 9.3418L1.1377 6.87793C1.66246 4.77897 1.96494 3.51084 2.68164 2.55371C3.29439 1.73543 4.1142 1.09525 5.05664 0.699219C6.15896 0.236098 7.46263 0.249998 9.62598 0.25H11.1338ZM1.52832 13.75C1.56091 14.2379 1.6215 14.7245 1.71777 15.2061C1.76949 15.4647 1.83448 15.7266 1.97656 16.2949C2.15646 17.0145 2.23147 17.3077 2.32715 17.5518C2.89319 18.9946 4.20032 20.0154 5.7373 20.2148C5.99751 20.2486 6.30038 20.25 7.04297 20.25H13.7168C14.4594 20.25 14.7622 20.2485 15.0225 20.2148C16.5596 20.0156 17.8665 18.9947 18.4326 17.5518C18.5284 17.3075 18.6032 17.0141 18.7832 16.2939C18.9252 15.7258 18.9903 15.4646 19.042 15.2061C19.1383 14.7245 19.1998 14.238 19.2324 13.75H17.0928C16.4205 13.75 16.2393 13.7575 16.0869 13.8037C15.9298 13.8515 15.7831 13.9299 15.6562 14.0342C15.5332 14.1353 15.4267 14.2813 15.0537 14.8408L14.9541 14.9912C14.6328 15.4732 14.3913 15.8481 14.0557 16.124C13.7764 16.3535 13.4542 16.5258 13.1084 16.6309C12.6926 16.7571 12.2463 16.75 11.667 16.75H9.09277C8.51366 16.75 8.06709 16.7571 7.65137 16.6309C7.30564 16.5258 6.98326 16.3535 6.7041 16.124C6.36862 15.8481 6.12688 15.473 5.80566 14.9912L5.70605 14.8408C5.33325 14.2816 5.22649 14.1353 5.10352 14.0342C4.97671 13.93 4.82985 13.8514 4.67285 13.8037C4.5205 13.7575 4.33909 13.75 3.66699 13.75H1.52832ZM9.62598 1.75C7.32341 1.75 6.39325 1.7646 5.6377 2.08203C4.94119 2.37472 4.33472 2.84743 3.88184 3.45215C3.39062 4.10815 3.15126 5.00739 2.59277 7.24121L1.97656 9.70508C1.83445 10.2735 1.7695 10.5353 1.71777 10.7939C1.6215 11.2754 1.56093 11.7621 1.52832 12.25H3.66699C4.2462 12.25 4.69264 12.243 5.1084 12.3691C5.45413 12.4741 5.77648 12.6466 6.05566 12.876C6.39119 13.1519 6.63292 13.527 6.9541 14.0088L7.05371 14.1592C7.42646 14.7183 7.53335 14.8647 7.65625 14.9658C7.78306 15.0701 7.92987 15.1485 8.08691 15.1963C8.23931 15.2425 8.42048 15.25 9.09277 15.25H11.667C12.3393 15.25 12.5205 15.2425 12.6729 15.1963C12.83 15.1486 12.9766 15.0701 13.1035 14.9658C13.2265 14.8647 13.3331 14.7187 13.7061 14.1592L13.8057 14.0088C14.127 13.5268 14.3685 13.1519 14.7041 12.876C14.9833 12.6465 15.3056 12.4742 15.6514 12.3691C16.0671 12.2429 16.5137 12.25 17.0928 12.25H19.2324C19.1998 11.7621 19.1383 11.2754 19.042 10.7939C18.9903 10.5355 18.9252 10.274 18.7832 9.70605L18.167 7.24219C17.6086 5.00841 17.3691 4.10915 16.8779 3.45312C16.425 2.84834 15.8187 2.37471 15.1221 2.08203C14.3665 1.76477 13.4363 1.75 11.1338 1.75H9.62598ZM12.3799 9.25C12.794 9.25 13.1297 9.58591 13.1299 10C13.1299 10.4142 12.7941 10.75 12.3799 10.75H8.37988C7.96589 10.7497 7.62988 10.4141 7.62988 10C7.63003 9.58607 7.96597 9.25025 8.37988 9.25H12.3799ZM13.3799 5.25C13.794 5.25 14.1297 5.58591 14.1299 6C14.1299 6.41421 13.7941 6.75 13.3799 6.75H7.37988C6.96589 6.74975 6.62988 6.41406 6.62988 6C6.63003 5.58607 6.96598 5.25025 7.37988 5.25H13.3799Z" fill="white"/>
</svg>
