<svg width="20" height="20" viewBox="0 0 20 20" fill="none" xmlns="http://www.w3.org/2000/svg">
<g clip-path="url(#clip0_103_1446)">
<path d="M8.46674 0.861084C9.46981 0.583648 10.5301 0.583631 11.5331 0.861084C12.1386 1.02862 12.6868 1.32465 13.2919 1.73999C13.8893 2.15006 14.5835 2.70525 15.4667 3.41187L15.8447 3.7146C16.8713 4.53592 17.4942 5.027 17.9521 5.64429C18.3872 6.23106 18.7071 6.896 18.8935 7.60229C19.0896 8.34556 19.0839 9.13891 19.0839 10.4539V14.1667C19.0837 16.8819 16.8821 19.0826 14.1669 19.0828C12.8324 19.0828 11.7501 18.0013 11.7499 16.6667V13.3328C11.7496 12.3666 10.9661 11.5829 9.99994 11.5828C9.03377 11.5829 8.25024 12.3666 8.24994 13.3328V16.6667C8.24976 18.0011 7.16823 19.0824 5.83392 19.0828C3.11863 19.0828 0.917106 16.882 0.916931 14.1667V10.4539C0.91693 9.13889 0.911206 8.34557 1.10736 7.60229C1.29379 6.89607 1.61274 6.23101 2.04779 5.64429C2.50564 5.02698 3.12856 4.53592 4.15521 3.7146L4.53412 3.41187C5.41723 2.70538 6.11159 2.15 6.70892 1.73999C7.31376 1.32489 7.8615 1.02858 8.46674 0.861084ZM11.1337 2.3064C10.3923 2.1013 9.60852 2.10138 8.86713 2.3064C8.48387 2.41242 8.09104 2.6102 7.55756 2.97632C7.01601 3.34803 6.3717 3.86367 5.47162 4.58374L5.09271 4.88647C4.00379 5.75762 3.56765 6.11348 3.25287 6.53784C2.93132 6.97149 2.69535 7.46313 2.55756 7.98511C2.42271 8.49612 2.41693 9.05903 2.41693 10.4539V14.1667C2.41711 16.0536 3.94706 17.5828 5.83392 17.5828C6.3398 17.5824 6.74976 17.1727 6.74994 16.6667V13.3328C6.75024 11.5382 8.20535 10.0829 9.99994 10.0828C11.7946 10.0829 13.2496 11.5382 13.2499 13.3328V16.6667C13.2501 17.1729 13.6608 17.5828 14.1669 17.5828C16.0537 17.5826 17.5837 16.0535 17.5839 14.1667V10.4539C17.5839 9.05911 17.5781 8.49609 17.4433 7.98511C17.3055 7.46308 17.0686 6.97153 16.747 6.53784C16.4323 6.11353 15.9969 5.75744 14.9081 4.88647L14.5292 4.58374C13.629 3.86353 12.9849 3.34808 12.4433 2.97632C11.9097 2.61008 11.517 2.41248 11.1337 2.3064Z" fill="#22272F"/>
</g>
<defs>
<clipPath id="clip0_103_1446">
<rect width="20" height="20" fill="white"/>
</clipPath>
</defs>
</svg>
