<svg width="15" height="17" viewBox="0 0 15 17" fill="none" xmlns="http://www.w3.org/2000/svg">
<path d="M7.16602 0.621094C11.087 0.621094 14.332 3.3966 14.332 7.43066C14.332 10.4744 12.9693 12.7115 11.4248 14.1738C10.6556 14.9021 9.83552 15.4438 9.10352 15.8066C8.39624 16.1572 7.69312 16.3789 7.16602 16.3789C6.63888 16.3788 5.93571 16.1572 5.22852 15.8066C4.49667 15.4438 3.67727 14.9018 2.9082 14.1738C1.36371 12.7115 2.63464e-06 10.4743 0 7.43066C2.79841e-05 3.39674 3.24516 0.621279 7.16602 0.621094ZM7.16602 2.12109C3.9583 2.12127 1.50003 4.33594 1.5 7.43066C1.5 9.98435 2.63251 11.8466 3.93945 13.084C4.59565 13.7052 5.2911 14.1633 5.89551 14.4629C6.52427 14.7745 6.98007 14.8788 7.16602 14.8789C7.35168 14.8789 7.80751 14.7746 8.43652 14.4629C9.04097 14.1633 9.73728 13.7053 10.3936 13.084C11.7004 11.8466 12.832 9.98424 12.832 7.43066C12.832 4.33581 10.3739 2.12109 7.16602 2.12109ZM7.16602 4.89844C8.76139 4.89844 10.0547 6.19174 10.0547 7.78711C10.0546 9.38246 8.76137 10.6758 7.16602 10.6758C5.57083 10.6756 4.27738 9.38233 4.27734 7.78711C4.27735 6.19186 5.57081 4.89864 7.16602 4.89844ZM7.16602 6.39844C6.39924 6.39864 5.77735 7.02029 5.77734 7.78711C5.77738 8.5539 6.39926 9.17558 7.16602 9.17578C7.93294 9.17578 8.55465 8.55403 8.55469 7.78711C8.55468 7.02017 7.93296 6.39844 7.16602 6.39844Z" fill="#22272F"/>
</svg>
