<svg width="9" height="10" viewBox="0 0 9 10" fill="none" xmlns="http://www.w3.org/2000/svg">
<path d="M4.3623 0C6.76563 8.80134e-05 8.72461 1.69276 8.72461 4.13379C8.72458 6.00918 7.88601 7.38547 6.93262 8.28809C6.45694 8.73837 5.95052 9.07307 5.50098 9.2959C5.05984 9.51451 4.64759 9.63764 4.3623 9.6377C4.07696 9.6377 3.66399 9.51464 3.22266 9.2959C2.77323 9.0731 2.26754 8.73821 1.79199 8.28809C0.838595 7.38547 2.84966e-05 6.00919 0 4.13379C0 1.6927 1.9589 0 4.3623 0ZM4.3623 0.5C2.1966 0.5 0.5 2.00577 0.5 4.13379C0.500028 5.84588 1.26153 7.09715 2.13574 7.9248C2.5737 8.33937 3.03834 8.64594 3.44531 8.84766C3.86056 9.05346 4.19079 9.1377 4.3623 9.1377C4.5339 9.13763 4.8641 9.05345 5.2793 8.84766C5.6863 8.64591 6.15089 8.33942 6.58887 7.9248C7.46307 7.09715 8.22458 5.84587 8.22461 4.13379C8.22461 2.00583 6.52792 0.500087 4.3623 0.5ZM4.3623 2.74121C5.2572 2.74141 5.98235 3.46738 5.98242 4.3623C5.98223 5.25713 5.25713 5.98223 4.3623 5.98242C3.4674 5.98233 2.74141 5.25719 2.74121 4.3623C2.74129 3.46732 3.46732 2.7413 4.3623 2.74121ZM4.3623 3.24121C3.74347 3.2413 3.24129 3.74346 3.24121 4.3623C3.24141 4.98105 3.74354 5.48233 4.3623 5.48242C4.98098 5.48223 5.48223 4.98098 5.48242 4.3623C5.48235 3.74353 4.98106 3.24141 4.3623 3.24121Z" fill="#8A38F5"/>
</svg>
