<svg width="22" height="21" viewBox="0 0 22 21" fill="none" xmlns="http://www.w3.org/2000/svg">
<path d="M14.7607 0.923828C18.1156 0.972369 21.4995 3.71062 21.5 7.67285C21.5 11.4943 19.0546 14.6826 16.625 16.8564C15.3968 17.9553 14.1369 18.8281 13.1143 19.4287C12.6032 19.7288 12.1429 19.9662 11.7686 20.1309C11.5821 20.2129 11.4081 20.2812 11.2539 20.3301C11.1185 20.373 10.9333 20.4229 10.75 20.4229C10.5667 20.4229 10.3815 20.373 10.2461 20.3301C10.0919 20.2812 9.91787 20.2129 9.73145 20.1309C9.35711 19.9662 8.89676 19.7288 8.38574 19.4287C7.36306 18.8281 6.10317 17.9553 4.875 16.8564C2.44543 14.6826 0 11.4943 0 7.67285C0.000452051 3.71936 3.377 0.923829 6.75 0.923828C8.1259 0.923828 9.60944 1.322 10.748 2.48633C11.8781 1.31966 13.3473 0.9034 14.7607 0.923828Z" fill="#22272F"/>
</svg>
