<svg width="22" height="7" viewBox="0 0 22 7" fill="none" xmlns="http://www.w3.org/2000/svg">
<path d="M3.25 0C5.03921 0 6.5 1.46079 6.5 3.25C6.5 5.03921 5.03921 6.5 3.25 6.5C1.46079 6.5 0 5.03921 0 3.25C0 1.46079 1.46079 0 3.25 0ZM10.75 0C12.5392 0 14 1.46079 14 3.25C14 5.03921 12.5392 6.5 10.75 6.5C8.96079 6.5 7.5 5.03921 7.5 3.25C7.5 1.46079 8.96079 0 10.75 0ZM18.25 0C20.0392 0 21.5 1.46079 21.5 3.25C21.5 5.03921 20.0392 6.5 18.25 6.5C16.4608 6.5 15 5.03921 15 3.25C15 1.46079 16.4608 0 18.25 0ZM3.25 1.5C2.28921 1.5 1.5 2.28921 1.5 3.25C1.5 4.21079 2.28921 5 3.25 5C4.21079 5 5 4.21079 5 3.25C5 2.28921 4.21079 1.5 3.25 1.5ZM10.75 1.5C9.78921 1.5 9 2.28921 9 3.25C9 4.21079 9.78921 5 10.75 5C11.7108 5 12.5 4.21079 12.5 3.25C12.5 2.28921 11.7108 1.5 10.75 1.5ZM18.25 1.5C17.2892 1.5 16.5 2.28921 16.5 3.25C16.5 4.21079 17.2892 5 18.25 5C19.2108 5 20 4.21079 20 3.25C20 2.28921 19.2108 1.5 18.25 1.5Z" fill="#22272F"/>
</svg>
