<svg width="21" height="21" viewBox="0 0 21 21" fill="none" xmlns="http://www.w3.org/2000/svg">
<path d="M10.3408 0C16.0516 0.00019457 20.6816 4.62999 20.6816 10.3408C20.6814 16.0515 16.0515 20.6814 10.3408 20.6816C4.63 20.6816 0.000211384 16.0516 0 10.3408C0 4.62987 4.62987 0 10.3408 0ZM10.3408 1.5C5.4583 1.5 1.5 5.4583 1.5 10.3408C1.50021 15.2232 5.45843 19.1816 10.3408 19.1816C15.223 19.1814 19.1814 15.223 19.1816 10.3408C19.1816 5.45842 15.2232 1.50019 10.3408 1.5ZM13.8662 5.82129C14.1507 5.69204 14.486 5.75285 14.707 5.97363C14.9279 6.19467 14.9886 6.52995 14.8594 6.81445L12.958 10.9971C12.7877 11.3718 12.6598 11.6621 12.4707 11.915C12.313 12.1259 12.1259 12.313 11.915 12.4707C11.6621 12.6597 11.3718 12.7877 10.9971 12.958L6.81445 14.8594C6.52996 14.9886 6.19466 14.9279 5.97363 14.707C5.75285 14.486 5.69204 14.1507 5.82129 13.8662L7.72266 9.68359C7.89296 9.30892 8.02 9.01852 8.20898 8.76562C8.36675 8.55457 8.55457 8.36676 8.76562 8.20898C9.01851 8.02001 9.30893 7.89295 9.68359 7.72266L13.8662 5.82129ZM10.3047 9.08789C9.87125 9.28491 9.75622 9.34152 9.66309 9.41113C9.56754 9.48264 9.48263 9.56753 9.41113 9.66309C9.34151 9.75622 9.28492 9.87122 9.08789 10.3047L8.01367 12.665L10.376 11.5928C10.8093 11.3958 10.9235 11.3391 11.0166 11.2695C11.1126 11.1978 11.1978 11.1126 11.2695 11.0166C11.3391 10.9235 11.3958 10.8094 11.5928 10.376L12.665 8.01367L10.3047 9.08789Z" fill="white"/>
</svg>
