<svg width="20" height="22" viewBox="0 0 20 22" fill="none" xmlns="http://www.w3.org/2000/svg">
<path d="M10.0106 0.25C13.8568 0.25 17.1683 2.96483 17.9227 6.73633L19.1766 13.0049C19.5793 15.0184 18.5105 17.043 16.6434 17.873C15.9616 18.176 15.2615 18.4283 14.5496 18.6328L14.4461 18.8682C13.6671 20.6207 11.9285 21.75 10.0106 21.75C8.09273 21.7499 6.35398 20.6207 5.57501 18.8682L5.47052 18.6328C4.75903 18.4284 4.05909 18.1759 3.37775 17.873C1.51077 17.043 0.441887 15.0183 0.844543 13.0049L2.09845 6.73633C2.85277 2.96489 6.16445 0.250129 10.0106 0.25ZM12.5613 19.0723C10.8725 19.3363 9.14762 19.3364 7.4588 19.0723C8.08584 19.8076 9.01298 20.2499 10.0106 20.25C11.0079 20.25 11.9343 19.8072 12.5613 19.0723ZM10.0106 1.75C6.87953 1.75013 4.18332 3.96007 3.56915 7.03027L2.31525 13.2998C2.05237 14.6151 2.75238 15.9529 3.98712 16.502C4.68311 16.8113 5.40045 17.0635 6.13068 17.2598C6.17068 17.2663 6.20957 17.2772 6.24786 17.29C8.71059 17.9302 11.3186 17.9295 13.7811 17.2881C13.8166 17.2766 13.8525 17.2659 13.8895 17.2598C14.6201 17.0635 15.3376 16.8114 16.034 16.502C17.2689 15.9529 17.9688 14.6152 17.7059 13.2998L16.452 7.03027C15.8378 3.96001 13.1417 1.75 10.0106 1.75Z" fill="white"/>
</svg>
