<svg width="20" height="22" viewBox="0 0 20 22" fill="none" xmlns="http://www.w3.org/2000/svg">
<path d="M10.0115 0.25C13.8577 0.250098 17.1693 2.96487 17.9236 6.73633L19.1776 13.0049C19.5802 15.0183 18.5114 17.043 16.6443 17.873C15.9627 18.176 15.2624 18.4283 14.5506 18.6328L14.4471 18.8682C13.6681 20.6207 11.9294 21.7499 10.0115 21.75C8.09362 21.75 6.35501 20.6207 5.57599 18.8682L5.4715 18.6328C4.75992 18.4284 4.06016 18.1759 3.37872 17.873C1.51159 17.043 0.442818 15.0184 0.84552 13.0049L2.09943 6.73633C2.85378 2.96482 6.16532 0.25 10.0115 0.25ZM12.5623 19.0723C10.8735 19.3363 9.1486 19.3364 7.45978 19.0723C8.08687 19.8075 9.01396 20.25 10.0115 20.25C11.0089 20.2499 11.9353 19.8073 12.5623 19.0723ZM10.0115 1.75C6.8804 1.75 4.18433 3.96 3.57013 7.03027L2.31622 13.2998C2.0533 14.6152 2.75319 15.9529 3.9881 16.502C4.68417 16.8113 5.40133 17.0635 6.13165 17.2598C6.17165 17.2663 6.21055 17.2772 6.24884 17.29C8.70868 17.9294 11.3134 17.9293 13.7733 17.29C13.8115 17.2772 13.8505 17.2663 13.8904 17.2598C14.621 17.0635 15.3387 16.8114 16.035 16.502C17.2698 15.9529 17.9697 14.6151 17.7068 13.2998L16.4529 7.03027C15.8388 3.96005 13.1426 1.7501 10.0115 1.75Z" fill="#22272F"/>
</svg>
