<svg width="9" height="8" viewBox="0 0 9 8" fill="none" xmlns="http://www.w3.org/2000/svg">
<path d="M3.42676 4.24609C4.55144 4.24622 5.46367 5.15854 5.46387 6.2832C5.46372 7.07893 4.81818 7.72443 4.02246 7.72461H1.44141C0.645537 7.72461 0.00015229 7.07904 0 6.2832C0.000198987 5.15846 0.912324 4.24609 2.03711 4.24609H3.42676ZM6.4043 4.24609C7.52906 4.24612 8.44121 5.15848 8.44141 6.2832C8.44125 7.07902 7.79585 7.72459 7 7.72461H6.20605C6.06814 7.72461 5.95631 7.61246 5.95605 7.47461C5.95625 7.33671 6.06811 7.22461 6.20605 7.22461H7C7.51971 7.22459 7.94125 6.80288 7.94141 6.2832C7.94121 5.43462 7.25292 4.74612 6.4043 4.74609H6.20605C6.06798 4.74609 5.95605 4.63416 5.95605 4.49609C5.95625 4.35819 6.06811 4.24609 6.20605 4.24609H6.4043ZM2.03711 4.74609C1.18847 4.74609 0.500199 5.43461 0.5 6.2832C0.500152 6.80289 0.92168 7.22461 1.44141 7.22461H4.02246C4.54204 7.22443 4.96372 6.80279 4.96387 6.2832C4.96367 5.43468 4.2753 4.74622 3.42676 4.74609H2.03711ZM2.73145 0.275391C3.69172 0.275518 4.47062 1.05436 4.4707 2.01465C4.47058 2.9749 3.69169 3.75378 2.73145 3.75391C1.77128 3.75368 0.992314 2.97483 0.992188 2.01465C0.992267 1.05442 1.77125 0.27562 2.73145 0.275391ZM5.21289 0.275391C5.59648 0.275391 5.91361 0.509243 6.12305 0.823242C6.33347 1.13907 6.45603 1.56123 6.45605 2.01465C6.45601 2.46819 6.33359 2.89021 6.12305 3.20605C5.91361 3.52016 5.59656 3.75391 5.21289 3.75391C5.07518 3.75366 4.96314 3.64161 4.96289 3.50391C4.96297 3.36605 5.07508 3.25415 5.21289 3.25391C5.37739 3.25391 5.5572 3.1534 5.70703 2.92871C5.85566 2.70574 5.95601 2.38323 5.95605 2.01465C5.95603 1.64621 5.85555 1.32356 5.70703 1.10059C5.55723 0.87604 5.37734 0.775391 5.21289 0.775391C5.07503 0.775146 4.96289 0.663311 4.96289 0.525391C4.96297 0.387538 5.07508 0.275635 5.21289 0.275391ZM2.73145 0.775391C2.0474 0.77562 1.49227 1.33056 1.49219 2.01465C1.49231 2.69869 2.04743 3.25368 2.73145 3.25391C3.41555 3.25378 3.97058 2.69876 3.9707 2.01465C3.97062 1.3305 3.41558 0.775518 2.73145 0.775391Z" fill="#8A38F5"/>
</svg>
