<svg width="24" height="24" viewBox="0 0 24 24" fill="none" xmlns="http://www.w3.org/2000/svg">
<path d="M5.61838 1.25098C6.11797 1.25645 6.53414 1.28521 6.90939 1.42676C7.43154 1.62377 7.88164 1.97581 8.19943 2.43457C8.50381 2.87421 8.63163 3.43287 8.81271 4.15723L8.93478 4.64648C9.2144 5.76496 9.39719 6.46793 9.37033 7.16992C9.34732 7.76936 9.21143 8.35951 8.96896 8.9082C8.68493 9.55086 8.21133 10.1021 7.46896 10.9844L5.71408 13.0693C6.98766 15.0839 8.64337 16.7747 10.6242 18.0869L13.1145 16.2236C13.9762 15.5784 14.5156 15.1673 15.1291 14.9248C15.6532 14.7177 16.2102 14.6048 16.7736 14.5928L17.0217 14.5957C17.6034 14.6226 18.2202 14.7823 19.134 15.0107L19.843 15.1875C20.5674 15.3686 21.126 15.4964 21.5656 15.8008C22.0244 16.1185 22.3764 16.5687 22.5735 17.0908C22.762 17.5907 22.7502 18.152 22.7502 18.8809C22.7502 19.3753 22.7513 19.7935 22.7219 20.1387C22.6914 20.4962 22.6245 20.8309 22.4631 21.1563C22.1618 21.763 21.5532 22.3022 20.9143 22.5273C20.2702 22.7542 19.635 22.6596 18.8274 22.5605C15.6139 22.1665 12.7269 21.1665 10.2629 19.6377C7.73531 18.0693 5.6642 15.9501 4.14767 13.3809C2.74015 10.9962 1.81489 8.23258 1.43966 5.17285C1.34065 4.36535 1.24601 3.73 1.47287 3.08594C1.69806 2.44707 2.23725 1.83838 2.84396 1.53711C3.16788 1.37637 3.49942 1.30997 3.85373 1.2793C4.19441 1.24982 4.60501 1.25 5.08908 1.25L5.61838 1.25098ZM16.8059 16.0928C16.4204 16.101 16.0394 16.1777 15.6809 16.3193C15.298 16.4707 14.9415 16.7292 14.0139 17.4238L12.0188 18.918C14.0666 20.0144 16.412 20.7527 19.01 21.0713C19.94 21.1853 20.1747 21.197 20.4153 21.1123C20.686 21.0169 20.9927 20.7464 21.1203 20.4893C21.1673 20.3947 21.2051 20.265 21.2268 20.0107C21.2495 19.7439 21.2502 19.4003 21.2502 18.8809C21.2502 18.0312 21.239 17.8026 21.1701 17.6201C21.0806 17.3829 20.9205 17.1786 20.7121 17.0342C20.5522 16.9234 20.3251 16.8542 19.4787 16.6426L18.7707 16.4658C17.6462 16.1847 17.2176 16.084 16.8059 16.0928ZM5.08908 2.75C4.57939 2.75 4.24387 2.75082 3.98263 2.77344C3.73512 2.79488 3.60709 2.83219 3.51095 2.87988C3.25382 3.0075 2.98333 3.31419 2.88791 3.58496C2.80323 3.8255 2.81491 4.06045 2.92892 4.99023C3.23192 7.46097 3.91408 9.70365 4.92306 11.6787L6.3215 10.0186C7.1211 9.06825 7.41969 8.70269 7.59689 8.30176C7.76276 7.92637 7.85556 7.52241 7.8713 7.1123C7.88802 6.67444 7.78079 6.2151 7.4797 5.01074L7.35763 4.52148C7.14605 3.67515 7.07681 3.44802 6.96603 3.28809C6.82159 3.07968 6.61734 2.91959 6.38009 2.83008C6.19809 2.76141 5.96124 2.75 5.08908 2.75Z" fill="#22272F"/>
</svg>
