<svg width="22" height="22" viewBox="0 0 22 22" fill="none" xmlns="http://www.w3.org/2000/svg">
<path d="M17.0094 1.04468L16.8616 0.30938L16.8615 0.309413L17.0094 1.04468ZM18.1149 1.13647L18.3817 0.435535L18.3816 0.435522L18.1149 1.13647ZM19.5367 2.3103L20.0671 1.77997L19.5367 2.3103ZM19.9459 2.71948L20.4763 2.18915L19.9459 2.71948ZM21.1198 4.14038L21.8207 3.87358L21.8207 3.87348L21.1198 4.14038ZM21.2106 5.24683L21.9458 5.39482L21.9458 5.39477L21.2106 5.24683ZM20.2867 6.84155L20.8967 7.27799L20.897 7.27748L20.2867 6.84155ZM19.4957 7.94702L18.8858 7.51058L18.8856 7.5108L19.4957 7.94702ZM19.1471 9.68921L19.8869 9.56607L19.8869 9.56606L19.1471 9.68921ZM19.2555 10.9998H20.0055V10.9997L19.2555 10.9998ZM19.1471 12.3103L18.4073 12.1871L18.4073 12.1871L19.1471 12.3103ZM19.4957 14.0505L20.106 13.6146L20.106 13.6145L19.4957 14.0505ZM20.2867 15.158L20.897 14.722L20.2867 15.158ZM21.2106 16.7537L21.9459 16.6059L21.9458 16.6057L21.2106 16.7537ZM21.1198 17.8591L21.8207 18.1259L21.8207 18.1258L21.1198 17.8591ZM19.9459 19.281L19.4156 18.7507L19.9459 19.281ZM19.5367 19.6902L20.0671 20.2205L19.5367 19.6902ZM18.1149 20.864L18.3816 21.565L18.3817 21.565L18.1149 20.864ZM17.0094 20.9548L16.8615 21.6901L16.8616 21.6901L17.0094 20.9548ZM15.4137 20.031L15.8496 19.4207L15.4137 20.031ZM14.3063 19.24L13.8703 19.8502L13.8703 19.8503L14.3063 19.24ZM12.566 18.8914L12.4429 18.1515L12.4428 18.1516L12.566 18.8914ZM11.2555 18.9998L11.2555 19.7498H11.2555V18.9998ZM9.94495 18.8914L9.8218 19.6312L9.8218 19.6312L9.94495 18.8914ZM8.20276 19.24L7.76653 18.6299L7.76632 18.6301L8.20276 19.24ZM7.09729 20.031L7.53322 20.6413L7.53373 20.6409L7.09729 20.031ZM5.50256 20.9548L5.6505 21.6901L5.65058 21.6901L5.50256 20.9548ZM4.39612 20.864L4.12922 21.5649L4.12931 21.565L4.39612 20.864ZM2.97522 19.6902L3.50555 19.1599L2.97522 19.6902ZM2.56604 19.281L2.03571 19.8113H2.03571L2.56604 19.281ZM1.39221 17.8591L0.691257 18.1259L0.691273 18.1259L1.39221 17.8591ZM1.30042 16.7537L0.565151 16.6057L0.56512 16.6059L1.30042 16.7537ZM2.22522 15.158L2.83552 15.5939L2.8357 15.5936L2.22522 15.158ZM3.01624 14.0496L3.62672 14.4852L3.62683 14.4851L3.01624 14.0496ZM3.36389 12.3103L4.10375 12.1874L4.10374 12.1874L3.36389 12.3103ZM3.25549 10.9998L2.50549 10.9997V10.9998H3.25549ZM3.36389 9.68921L2.62402 9.56636L2.62402 9.56638L3.36389 9.68921ZM3.01526 7.94897L2.4047 8.38455L2.40477 8.38464L3.01526 7.94897ZM2.22522 6.84155L2.83577 6.40598L2.83552 6.40562L2.22522 6.84155ZM1.30042 5.24683L0.565151 5.39477L0.565156 5.39479L1.30042 5.24683ZM1.39221 4.14038L0.69134 3.8734L0.691273 3.87358L1.39221 4.14038ZM2.56604 2.71948L2.03571 2.18915L2.56604 2.71948ZM2.97522 2.3103L2.44489 1.77997L2.97522 2.3103ZM4.39612 1.13647L4.12931 0.435535L4.12914 0.435602L4.39612 1.13647ZM5.50256 1.04468L5.65053 0.309419L5.6505 0.309413L5.50256 1.04468ZM7.09729 1.96948L6.66136 2.57978L6.66172 2.58004L7.09729 1.96948ZM8.20471 2.75952L8.64037 2.14903L8.64028 2.14897L8.20471 2.75952ZM9.94495 3.10815L9.82212 2.36828L9.82209 2.36828L9.94495 3.10815ZM11.2555 2.99976V2.24976H11.2555L11.2555 2.99976ZM12.566 3.10815L12.4431 3.84801L12.4431 3.84801L12.566 3.10815ZM14.3053 2.7605L14.7408 3.37109L14.741 3.37098L14.3053 2.7605ZM15.4137 1.96948L15.8494 2.57996L15.8496 2.57978L15.4137 1.96948ZM11.2555 7.99976V7.24976H11.2554L11.2555 7.99976ZM8.25549 10.9998L7.50549 10.9997V10.9998H8.25549ZM11.2555 13.9998L11.2554 14.7498H11.2555V13.9998ZM14.2555 10.9998H15.0055V10.9997L14.2555 10.9998ZM17.0094 1.04468L17.1572 1.77998C17.388 1.73359 17.6275 1.75348 17.8481 1.83743L18.1149 1.13647L18.3816 0.435522C17.8972 0.251173 17.3703 0.207151 16.8616 0.30938L17.0094 1.04468ZM18.1149 1.13647L17.8481 1.83741C17.9351 1.87055 18.045 1.9336 18.2317 2.094C18.4255 2.26053 18.658 2.49222 19.0064 2.84063L19.5367 2.3103L20.0671 1.77997C19.7345 1.44739 19.456 1.16831 19.2092 0.956235C18.9552 0.738045 18.6947 0.554673 18.3817 0.435535L18.1149 1.13647ZM19.5367 2.3103L19.0064 2.84063L19.4156 3.24981L19.9459 2.71948L20.4763 2.18915L20.0671 1.77997L19.5367 2.3103ZM19.9459 2.71948L19.4156 3.24981C19.764 3.59822 19.9957 3.83047 20.1623 4.02425C20.3229 4.2109 20.3858 4.32053 20.4188 4.40729L21.1198 4.14038L21.8207 3.87348C21.7014 3.56033 21.5178 3.29984 21.2996 3.04618C21.0876 2.79965 20.8085 2.5214 20.4763 2.18915L19.9459 2.71948ZM21.1198 4.14038L20.4188 4.40718C20.5023 4.62661 20.522 4.86667 20.4753 5.09889L21.2106 5.24683L21.9458 5.39477C22.048 4.88716 22.0056 4.35944 21.8207 3.87358L21.1198 4.14038ZM21.2106 5.24683L20.4753 5.09883C20.4569 5.19009 20.4129 5.3087 20.2854 5.51908C20.153 5.73753 19.9628 6.00474 19.6764 6.40562L20.2867 6.84155L20.897 7.27748C21.1703 6.89493 21.3997 6.57455 21.5683 6.29639C21.7417 6.01016 21.8797 5.72312 21.9458 5.39482L21.2106 5.24683ZM20.2867 6.84155L19.6768 6.40511L18.8858 7.51058L19.4957 7.94702L20.1057 8.38346L20.8967 7.27799L20.2867 6.84155ZM19.4957 7.94702L18.8856 7.5108C18.3856 8.21018 18.282 9.05963 18.4073 9.81236L19.1471 9.68921L19.8869 9.56606C19.8102 9.10539 19.8904 8.68449 20.1058 8.38325L19.4957 7.94702ZM19.1471 9.68921L18.4073 9.81235C18.4716 10.1988 18.5055 10.5953 18.5055 10.9998L19.2555 10.9998L20.0055 10.9997C20.0055 10.5113 19.9645 10.0324 19.8869 9.56607L19.1471 9.68921ZM19.2555 10.9998H18.5055C18.5055 11.4041 18.4716 11.8009 18.4073 12.1871L19.1471 12.3103L19.8869 12.4336C19.9646 11.9672 20.0055 11.488 20.0055 10.9998H19.2555ZM19.1471 12.3103L18.4073 12.1871C18.282 12.94 18.3863 13.7879 18.8855 14.4865L19.4957 14.0505L20.106 13.6145C19.8906 13.3131 19.8104 12.8931 19.8869 12.4335L19.1471 12.3103ZM19.4957 14.0505L18.8854 14.4865L19.6764 15.5939L20.2867 15.158L20.897 14.722L20.106 13.6146L19.4957 14.0505ZM20.2867 15.158L19.6764 15.5939C19.9628 15.9947 20.153 16.2622 20.2853 16.4807C20.4127 16.6912 20.4569 16.8101 20.4753 16.9016L21.2106 16.7537L21.9458 16.6057C21.8798 16.2776 21.7419 15.9904 21.5685 15.7039C21.3999 15.4255 21.1705 15.1049 20.897 14.722L20.2867 15.158ZM21.2106 16.7537L20.4753 16.9015C20.5219 17.1335 20.5022 17.373 20.4188 17.5924L21.1198 17.8591L21.8207 18.1258C22.0055 17.6403 22.0479 17.1133 21.9459 16.6059L21.2106 16.7537ZM21.1198 17.8591L20.4188 17.5923C20.3857 17.6794 20.3226 17.7893 20.1622 17.976C19.9957 18.1698 19.764 18.4023 19.4156 18.7507L19.9459 19.281L20.4763 19.8113C20.8088 19.4788 21.0879 19.2003 21.3 18.9535C21.5182 18.6995 21.7016 18.4389 21.8207 18.1259L21.1198 17.8591ZM19.9459 19.281L19.4156 18.7507L19.0064 19.1599L19.5367 19.6902L20.0671 20.2205L20.4763 19.8113L19.9459 19.281ZM19.5367 19.6902L19.0064 19.1599C18.658 19.5082 18.4256 19.7399 18.2317 19.9065C18.045 20.0669 17.9351 20.1299 17.8481 20.1631L18.1149 20.864L18.3817 21.565C18.6947 21.4458 18.9553 21.2624 19.2092 21.0442C19.4561 20.8321 19.7345 20.5531 20.0671 20.2205L19.5367 19.6902ZM18.1149 20.864L17.8482 20.163C17.6288 20.2465 17.3892 20.2662 17.1572 20.2195L17.0094 20.9548L16.8616 21.6901C17.369 21.7921 17.896 21.7497 18.3816 21.565L18.1149 20.864ZM17.0094 20.9548L17.1573 20.2196C17.0658 20.2012 16.947 20.157 16.7364 20.0296C16.5179 19.8973 16.2505 19.707 15.8496 19.4207L15.4137 20.031L14.9778 20.6413C15.3606 20.9148 15.6812 21.1442 15.9597 21.3128C16.2462 21.4862 16.5333 21.6241 16.8615 21.6901L17.0094 20.9548ZM15.4137 20.031L15.8496 19.4207L14.7422 18.6297L14.3063 19.24L13.8703 19.8503L14.9778 20.6413L15.4137 20.031ZM14.3063 19.24L14.7423 18.6297C14.0437 18.1306 13.1957 18.0262 12.4429 18.1515L12.566 18.8914L12.6892 19.6312C13.1488 19.5547 13.5688 19.6349 13.8703 19.8502L14.3063 19.24ZM12.566 18.8914L12.4428 18.1516C12.0566 18.2159 11.6599 18.2498 11.2555 18.2498V18.9998V19.7498C11.7438 19.7498 12.2229 19.7089 12.6893 19.6312L12.566 18.8914ZM11.2555 18.9998L11.2555 18.2498C10.851 18.2497 10.4545 18.2159 10.0681 18.1515L9.94495 18.8914L9.8218 19.6312C10.2881 19.7088 10.767 19.7497 11.2555 19.7498L11.2555 18.9998ZM9.94495 18.8914L10.0681 18.1515C9.31537 18.0262 8.46591 18.1298 7.76653 18.6299L8.20276 19.24L8.63898 19.8501C8.94023 19.6347 9.36112 19.5545 9.8218 19.6312L9.94495 18.8914ZM8.20276 19.24L7.76632 18.6301L6.66085 19.4211L7.09729 20.031L7.53373 20.6409L8.6392 19.8499L8.20276 19.24ZM7.09729 20.031L6.66136 19.4207C6.26048 19.7071 5.99327 19.8973 5.77482 20.0297C5.56443 20.1571 5.44582 20.2012 5.35455 20.2196L5.50256 20.9548L5.65058 21.6901C5.97886 21.624 6.26589 21.486 6.55212 21.3125C6.83029 21.144 7.15066 20.9146 7.53322 20.6413L7.09729 20.031ZM5.50256 20.9548L5.35462 20.2196C5.1224 20.2663 4.88235 20.2466 4.66292 20.1631L4.39612 20.864L4.12931 21.565C4.61517 21.7499 5.1429 21.7922 5.6505 21.6901L5.50256 20.9548ZM4.39612 20.864L4.66301 20.1631C4.57626 20.1301 4.46663 20.0671 4.27999 19.9066C4.08622 19.74 3.85397 19.5083 3.50555 19.1599L2.97522 19.6902L2.44489 20.2205C2.77714 20.5528 3.05539 20.8319 3.30191 21.0439C3.55557 21.262 3.81606 21.4457 4.12922 21.5649L4.39612 20.864ZM2.97522 19.6902L3.50555 19.1599L3.09637 18.7507L2.56604 19.281L2.03571 19.8113L2.44489 20.2205L2.97522 19.6902ZM2.56604 19.281L3.09637 18.7507C2.74796 18.4023 2.51626 18.1698 2.34974 17.976C2.18933 17.7893 2.12629 17.6794 2.09315 17.5923L1.39221 17.8591L0.691273 18.1259C0.81041 18.4389 0.993782 18.6995 1.21197 18.9535C1.42405 19.2003 1.70313 19.4788 2.03571 19.8113L2.56604 19.281ZM1.39221 17.8591L2.09317 17.5924C2.00922 17.3718 1.98932 17.1322 2.03571 16.9014L1.30042 16.7537L0.56512 16.6059C0.462876 17.1146 0.506917 17.6415 0.691257 18.1259L1.39221 17.8591ZM1.30042 16.7537L2.03568 16.9016C2.054 16.8106 2.09811 16.6919 2.22589 16.4812C2.35852 16.2624 2.54902 15.995 2.83552 15.5939L2.22522 15.158L1.61492 14.722C1.34164 15.1046 1.11196 15.4252 0.943239 15.7035C0.769671 15.9897 0.631271 16.2771 0.565151 16.6057L1.30042 16.7537ZM2.22522 15.158L2.8357 15.5936L3.62672 14.4852L3.01624 14.0496L2.40575 13.6139L1.61474 14.7223L2.22522 15.158ZM3.01624 14.0496L3.62683 14.4851C4.12504 13.7866 4.22862 12.939 4.10375 12.1874L3.36389 12.3103L2.62403 12.4332C2.70038 12.8928 2.62044 13.3129 2.40564 13.614L3.01624 14.0496ZM3.36389 12.3103L4.10374 12.1874C4.03949 11.8007 4.00549 11.404 4.00549 10.9998H3.25549H2.50549C2.50549 11.4882 2.54659 11.9672 2.62404 12.4333L3.36389 12.3103ZM3.25549 10.9998L4.00549 10.9998C4.0055 10.5955 4.03954 10.1989 4.10377 9.81203L3.36389 9.68921L2.62402 9.56638C2.54667 10.0323 2.50551 10.5111 2.50549 10.9997L3.25549 10.9998ZM3.36389 9.68921L4.10376 9.81206C4.22871 9.05954 4.12413 8.21169 3.62575 7.51331L3.01526 7.94897L2.40477 8.38464C2.62004 8.6863 2.70031 9.1069 2.62402 9.56636L3.36389 9.68921ZM3.01526 7.94897L3.62581 7.5134L2.83577 6.40598L2.22522 6.84155L1.61467 7.27712L2.4047 8.38455L3.01526 7.94897ZM2.22522 6.84155L2.83552 6.40562C2.5489 6.00435 2.35842 5.73718 2.22574 5.51856C2.09797 5.30803 2.05396 5.1897 2.03567 5.09886L1.30042 5.24683L0.565156 5.39479C0.631322 5.72357 0.769839 6.01079 0.94342 6.2968C1.11209 6.57472 1.34179 6.8951 1.61492 7.27748L2.22522 6.84155ZM1.30042 5.24683L2.03568 5.09889C1.98922 4.868 2.00915 4.62788 2.09315 4.40718L1.39221 4.14038L0.691273 3.87358C0.506818 4.35817 0.462749 4.88583 0.565151 5.39477L1.30042 5.24683ZM1.39221 4.14038L2.09308 4.40736C2.12616 4.32054 2.18912 4.2109 2.34961 4.02428C2.51625 3.83051 2.74793 3.59825 3.09637 3.24981L2.56604 2.71948L2.03571 2.18915C1.70341 2.52146 1.42434 2.7997 1.21233 3.04622C0.994178 3.29989 0.810598 3.56032 0.69134 3.8734L1.39221 4.14038ZM2.56604 2.71948L3.09637 3.24981L3.50555 2.84063L2.97522 2.3103L2.44489 1.77997L2.03571 2.18915L2.56604 2.71948ZM2.97522 2.3103L3.50555 2.84063C3.85399 2.49219 4.08625 2.26051 4.28001 2.09387C4.46664 1.93338 4.57628 1.87042 4.6631 1.83735L4.39612 1.13647L4.12914 0.435602C3.81606 0.554861 3.55563 0.738441 3.30196 0.956592C3.05544 1.1686 2.77719 1.44767 2.44489 1.77997L2.97522 2.3103ZM4.39612 1.13647L4.66292 1.83741C4.88362 1.75341 5.12373 1.73349 5.35462 1.77994L5.50256 1.04468L5.6505 0.309413C5.14157 0.207012 4.61391 0.25108 4.12931 0.435535L4.39612 1.13647ZM5.50256 1.04468L5.3546 1.77994C5.44544 1.79822 5.56377 1.84223 5.7743 1.97C5.99292 2.10268 6.26009 2.29316 6.66136 2.57978L7.09729 1.96948L7.53322 1.35918C7.15084 1.08606 6.83046 0.856354 6.55254 0.687682C6.26653 0.514102 5.97931 0.375584 5.65053 0.309419L5.50256 1.04468ZM7.09729 1.96948L6.66172 2.58004L7.76914 3.37008L8.20471 2.75952L8.64028 2.14897L7.53286 1.35893L7.09729 1.96948ZM8.20471 2.75952L7.76905 3.37001C8.46743 3.86839 9.31528 3.97298 10.0678 3.84802L9.94495 3.10815L9.82209 2.36828C9.36264 2.44457 8.94204 2.3643 8.64037 2.14903L8.20471 2.75952ZM9.94495 3.10815L10.0678 3.84803C10.4546 3.7838 10.8513 3.74977 11.2555 3.74976L11.2555 2.99976L11.2555 2.24976C10.7668 2.24977 10.2881 2.29093 9.82212 2.36828L9.94495 3.10815ZM11.2555 2.99976V3.74976C11.6597 3.74976 12.0564 3.78375 12.4431 3.84801L12.566 3.10815L12.689 2.3683C12.2229 2.29085 11.744 2.24976 11.2555 2.24976V2.99976ZM12.566 3.10815L12.4431 3.84801C13.1948 3.97288 14.0423 3.8693 14.7408 3.37109L14.3053 2.7605L13.8698 2.1499C13.5686 2.3647 13.1486 2.44465 12.6889 2.36829L12.566 3.10815ZM14.3053 2.7605L14.741 3.37098L15.8494 2.57996L15.4137 1.96948L14.978 1.359L13.8696 2.15002L14.3053 2.7605ZM15.4137 1.96948L15.8496 2.57978C16.2507 2.29329 16.5182 2.10278 16.7369 1.97015C16.9477 1.84237 17.0663 1.79826 17.1573 1.77994L17.0094 1.04468L16.8615 0.309413C16.5328 0.375533 16.2455 0.513934 15.9592 0.687502C15.6809 0.856224 15.3604 1.0859 14.9778 1.35918L15.4137 1.96948ZM11.2555 7.99976L11.2554 7.24976C9.1846 7.24992 7.50558 8.92879 7.50549 10.9997L8.25549 10.9998L9.00549 10.9998C9.00554 9.75729 10.013 8.74986 11.2556 8.74976L11.2555 7.99976ZM8.25549 10.9998H7.50549C7.50549 13.0708 9.18458 14.7496 11.2554 14.7498L11.2555 13.9998L11.2556 13.2498C10.0129 13.2497 9.00549 12.2423 9.00549 10.9998H8.25549ZM11.2555 13.9998V14.7498C13.3266 14.7498 15.0055 13.0708 15.0055 10.9998H14.2555H13.5055C13.5055 12.2424 12.4981 13.2498 11.2555 13.2498V13.9998ZM14.2555 10.9998L15.0055 10.9997C15.0054 8.92877 13.3266 7.24976 11.2555 7.24976V7.99976V8.74976C12.4981 8.74976 13.5054 9.75715 13.5055 10.9998L14.2555 10.9998Z" fill="#22272F"/>
</svg>
