<svg width="24" height="25" viewBox="0 0 24 25" fill="none" xmlns="http://www.w3.org/2000/svg">
<path d="M11 1.75C16.3848 1.75 20.75 6.11522 20.75 11.5C20.75 13.9223 19.8635 16.1357 18.4014 17.8408L21.5303 20.9697C21.8232 21.2626 21.8232 21.7374 21.5303 22.0303C21.2374 22.3232 20.7626 22.3232 20.4697 22.0303L17.3408 18.9014C15.6357 20.3635 13.4223 21.25 11 21.25C5.61522 21.25 1.25 16.8848 1.25 11.5C1.25 6.11522 5.61522 1.75 11 1.75ZM11 3.25C6.44365 3.25 2.75 6.94365 2.75 11.5C2.75 16.0563 6.44365 19.75 11 19.75C15.5563 19.75 19.25 16.0563 19.25 11.5C19.25 6.94365 15.5563 3.25 11 3.25Z" fill="#22272F"/>
</svg>
