<svg width="18" height="23" viewBox="0 0 18 23" fill="none" xmlns="http://www.w3.org/2000/svg">
<path d="M12.75 0.961914C15.3734 0.961914 17.5 3.08856 17.5 5.71191V17.7119C17.5 20.3353 15.3734 22.4619 12.75 22.4619H4.75C2.12665 22.4619 0 20.3353 0 17.7119V5.71191C0 3.08856 2.12665 0.961914 4.75 0.961914H12.75ZM4.75 16.9619C4.33579 16.9619 4 17.2977 4 17.7119C4 18.1261 4.33579 18.4619 4.75 18.4619H5.75C6.16421 18.4619 6.5 18.1261 6.5 17.7119C6.5 17.2977 6.16421 16.9619 5.75 16.9619H4.75ZM11.75 16.9619C11.3358 16.9619 11 17.2977 11 17.7119C11 18.1261 11.3358 18.4619 11.75 18.4619H12.75C13.1642 18.4619 13.5 18.1261 13.5 17.7119C13.5 17.2977 13.1642 16.9619 12.75 16.9619H11.75ZM4.75 12.9619C4.33579 12.9619 4 13.2977 4 13.7119C4 14.1261 4.33579 14.4619 4.75 14.4619H5.75C6.16421 14.4619 6.5 14.1261 6.5 13.7119C6.5 13.2977 6.16421 12.9619 5.75 12.9619H4.75ZM11.75 12.9619C11.3358 12.9619 11 13.2977 11 13.7119C11 14.1261 11.3358 14.4619 11.75 14.4619H12.75C13.1642 14.4619 13.5 14.1261 13.5 13.7119C13.5 13.2977 13.1642 12.9619 12.75 12.9619H11.75ZM5.75 4.96191C4.7835 4.96191 4 5.74542 4 6.71191V7.71191C4 8.67841 4.7835 9.46191 5.75 9.46191H11.75C12.7165 9.46191 13.5 8.67841 13.5 7.71191V6.71191C13.5 5.74542 12.7165 4.96191 11.75 4.96191H5.75Z" fill="#22272F"/>
</svg>
