<svg width="22" height="20" viewBox="0 0 22 20" fill="none" xmlns="http://www.w3.org/2000/svg">
<path d="M1.21973 0.219727C1.51262 -0.0731666 1.98738 -0.0731666 2.28027 0.219727L20.2803 18.2197C20.5732 18.5126 20.5732 18.9874 20.2803 19.2803C19.9874 19.5732 19.5126 19.5732 19.2197 19.2803L16.8223 16.8828C15.2269 17.8546 13.2109 18.5 10.75 18.5C7.03463 18.5 4.343 17.0335 2.58496 15.208C0.856746 13.4133 0 11.235 0 9.75C2.61895e-08 8.05973 1.11403 5.42921 3.43848 3.49902L1.21973 1.28027C0.926833 0.98738 0.926833 0.51262 1.21973 0.219727ZM4.50488 4.56543C2.40169 6.25572 1.5 8.54387 1.5 9.75C1.5 10.765 2.14342 12.5867 3.66504 14.167C5.157 15.7163 7.46554 17 10.75 17C12.7685 17 14.4131 16.5141 15.7256 15.7861L12.8174 12.8779C12.2247 13.2703 11.5139 13.5 10.75 13.5C8.67893 13.5 7 11.8211 7 9.75C7 8.98593 7.22864 8.27437 7.62109 7.68164L4.50488 4.56543ZM10.75 1C14.4654 1 17.157 2.46645 18.915 4.29199C20.6433 6.08668 21.5 8.26504 21.5 9.75C21.5 10.8399 21.0394 12.2821 20.1465 13.6582C20.0295 13.8386 19.9044 14.0185 19.7715 14.1973C19.5243 14.5296 19.054 14.5988 18.7217 14.3516C18.3897 14.1043 18.3213 13.635 18.5684 13.3027C18.6821 13.1498 18.7889 12.9956 18.8887 12.8418C19.6709 11.6361 20 10.4742 20 9.75C20 8.73501 19.3566 6.91327 17.835 5.33301C16.343 3.78366 14.0345 2.5 10.75 2.5C9.71519 2.5 8.78054 2.62711 7.94043 2.84766C7.78254 2.88911 7.62798 2.93456 7.47656 2.98242C7.08167 3.10727 6.66008 2.88802 6.53516 2.49316C6.41033 2.09835 6.62874 1.67678 7.02344 1.55176C7.19855 1.49639 7.37765 1.44522 7.55957 1.39746C8.52814 1.14317 9.5909 1 10.75 1ZM8.7207 8.78125C8.58026 9.07483 8.5 9.40257 8.5 9.75C8.5 10.9926 9.50736 12 10.75 12C11.0972 12 11.4243 11.9186 11.7178 11.7783L8.7207 8.78125Z" fill="#22272F"/>
</svg>
